/* XPM */
static char *NTPview[] = {
/* columns rows colors chars-per-pixel */
"48 31 173 2",
"   c #1E1E1E",
".  c #202020",
"X  c #242424",
"o  c #252525",
"O  c #262626",
"+  c #272726",
"@  c #272727",
"#  c #282828",
"$  c #2A2A2A",
"%  c #2B2B2B",
"&  c #2C2C2B",
"*  c #2E2E2E",
"=  c #303030",
"-  c #313131",
";  c #515151",
":  c #535352",
">  c #545454",
",  c #555555",
"<  c #686868",
"1  c #696969",
"2  c #6B6B6B",
"3  c #6E6E6E",
"4  c #717171",
"5  c #737373",
"6  c #757574",
"7  c #767676",
"8  c #868686",
"9  c #878787",
"0  c #A8A8A8",
"q  c #ADADAD",
"w  c #AEAEAE",
"e  c #AFAFAF",
"r  c #AFAFB0",
"t  c #B2B2B2",
"y  c #B3B3B3",
"u  c #B4B4B4",
"i  c #B4B4B5",
"p  c #B5B5B5",
"a  c #B5B5B6",
"s  c #B6B6B5",
"d  c #B6B6B6",
"f  c #B7B7B7",
"g  c #B7B7B8",
"h  c #B8B7B7",
"j  c #B8B8B7",
"k  c #B8B8B8",
"l  c #B8B8B9",
"z  c #B8B9B9",
"x  c #B9B8B8",
"c  c #B9B9B8",
"v  c #B9B9B9",
"b  c #B9BABA",
"n  c #BABAB9",
"m  c #BABABA",
"M  c #BABABB",
"N  c #BABBBB",
"B  c #BBBABA",
"V  c #BBBBBA",
"C  c #BBBBBB",
"Z  c #BCBCBB",
"A  c #BCBCBC",
"S  c #BCBDBD",
"D  c #BDBCBC",
"F  c #BDBDBD",
"G  c #BDBDBE",
"H  c #BDBEBE",
"J  c #BEBEBD",
"K  c #BEBEBE",
"L  c #BEBEBF",
"P  c #BEBFBF",
"I  c #BFBFBF",
"U  c #BFBFC0",
"Y  c #BFC0C0",
"T  c #C0C0BF",
"R  c #C0C0C0",
"E  c #C0C1C1",
"W  c #C1C0C0",
"Q  c #C1C1C0",
"!  c #C1C1C1",
"~  c #C1C1C2",
"^  c #C1C2C2",
"/  c #C2C1C0",
"(  c #C2C2C2",
")  c #C2C2C3",
"_  c #C2C3C3",
"`  c #C3C2C2",
"'  c #C3C3C3",
"]  c #C3C3C4",
"[  c #C4C3C2",
"{  c #C4C3C3",
"}  c #C4C4C3",
"|  c #C4C4C4",
" . c #C5C5C4",
".. c #C5C5C5",
"X. c #C6C5C5",
"o. c #C6C6C6",
"O. c #C7C6C6",
"+. c #C7C7C6",
"@. c #C7C7C7",
"#. c #C8C7C6",
"$. c #C8C8C8",
"%. c #C8C8C9",
"&. c #C9C9C9",
"*. c #C9C9CA",
"=. c #C9CACA",
"-. c #CAC9C9",
";. c #CACAC9",
":. c #CACACA",
">. c #CACACB",
",. c #CBCACA",
"<. c #CCCBCB",
"1. c #CCCCCB",
"2. c #CCCCCC",
"3. c #CCCDCD",
"4. c #CDCDCC",
"5. c #CDCDCD",
"6. c #CDCDCE",
"7. c #CFCECD",
"8. c #CECECE",
"9. c #CECECF",
"0. c #CFCFCF",
"q. c #CFCFD0",
"w. c #CFD0D0",
"e. c #D0D0D0",
"r. c #D0D0D1",
"t. c #D0D1D1",
"y. c #D1D1D0",
"u. c #D1D1D1",
"i. c #D1D1D2",
"p. c #D2D1D1",
"a. c #D2D2D1",
"s. c #D2D2D2",
"d. c #D2D2D3",
"f. c #D3D2D2",
"g. c #D3D3D2",
"h. c #D3D3D3",
"j. c #D3D3D4",
"k. c #D3D4D4",
"l. c #D4D3D3",
"z. c #D4D4D3",
"x. c #D4D4D4",
"c. c #D4D4D5",
"v. c #D5D5D4",
"b. c #D5D5D5",
"n. c #D5D5D6",
"m. c #D5D6D6",
"M. c #D6D6D6",
"N. c #D6D6D7",
"B. c #D6D7D7",
"V. c #D7D6D6",
"C. c #D7D7D6",
"Z. c #D7D7D7",
"A. c #D7D8D8",
"S. c #D8D7D7",
"D. c #D8D8D8",
"F. c #D8D9D9",
"G. c #D9D9D8",
"H. c #D9D9D9",
"J. c #D9DADA",
"K. c #DADADA",
"L. c #DBDBDB",
"P. c #DCDCDB",
"I. c #DCDCDC",
"U. c #DDDDDC",
"Y. c #DDDDDD",
"T. c #DEDEDE",
"R. c #DFDFDF",
"E. c #E1E1E1",
"W. c #E2E2E2",
"Q. c #F6F6F7",
"!. c #F8F8F8",
"~. c #FAFAFA",
"^. c #FBFBFB",
/* pixels */
". o o o o o o o o o o o o o o o o o o o o o & & @ o o o o o o o o o o o o o o o o o o o o o o . ",
"  o o o o o o o o o o o o o o o o o o o o - > : ; ; * o o o o o o o o o o o o o o o # # - # #   ",
"> < < < < < < < < < < < < < < < < < < < < 3 5 4 6 6 3 < < 2 < < 2 < < < < < < 2 < 2 < < 2 < < > ",
"w b.H.H.H.b.H.H.H.H.H.L.L.R.R.R.R.L.R.R.L.R.L.R.R.R.L.R.R.R.R.R.R.R.R.R.R.R.R.R.R.R.R.R.R.R.m.w ",
"e b.f.c a L a a g c b.2.<.2.9.H.y.y.b.$.m.H.A.Q.~.^.^.^.^.^.^.^.^.^.^.~.^.^.~.~.~.~.~.~.~.~.K.w ",
"e b.S.2.2.2.$.2.2.9.b.b.H.K.H.K.L.L.L.K.L.L.L.R.R.H.m.H.L.H.H.m.L.W.W.W.W.W.R.R.W.W.W.R.R.R.m.w ",
"w S.l.c t c a L g g 2.A.H.H.H.A.H.H.H.H.H.H.H.H.H.L a L ^ ~ L a $.H.H.H.H.H.H.H.H.H.H.A.H.H.m.r ",
"e y.' ' ' ` ^ ^ U ~ ~ h.H.H.H.H.H.H.H.H.H.H.H.H.H.S.2.$.' $.' y.H.H.H.H.H.H.H.H.H.H.H.H.H.H.b.r ",
"e y.^ L ^ L L ^ L L T h.H.H.H.H.H.H.H.H.H.H.H.H.H.S.$.[ L ^ L 2.H.H.H.H.H.H.H.H.H.H.H.H.H.H.b.w ",
"e b.H.H.b.c h h y.H.H.H.H.H.H.H.H.H.H.H.H.H.H.H.H.H.H.L.<.b.H.H.H.H.H.H.H.H.H.H.H.H.H.H.H.H.b.w ",
"e b.H.H.H.#.c ^ H.H.H.H.H.H.H.H.H.H.H.H.H.H.H.H.H.H.H.<.^ ~ b.H.H.H.H.H.H.H.H.H.H.H.H.H.H.H.b.w ",
"w b.H.H.H.' L ^ b.H.H.H.H.H.H.H.H.H.H.H.H.H.H.S.l.l.y.' ^ L y.b.b.y.m.H.H.H.H.H.H.H.H.H.H.H.b.w ",
"w b.H.H.f.h a c 9.H.H.H.H.H.H.H.H.H.H.H.H.H.H.$.a a t a Z a a g c L b.H.H.H.H.H.H.H.H.H.H.H.b.w ",
"w b.H.l.Z L B Z U y.H.H.H.H.H.H.S.H.H.H.H.H.H.H.S.b.H.b.+.y.H.b.m.b.H.H.H.H.H.H.H.H.H.H.H.H.b.w ",
"w b.H.b.^ ` T ^ ' m.H.H.H.H.H.H.H.H.H.H.H.H.H.H.H.H.H.H.$.y.H.H.H.H.H.H.H.H.H.H.m.H.H.H.H.H.b.w ",
"w b.H.H.#.h c h $.K.H.H.H.H.H.H.H.H.H.H.H.H.H.H.H.H.H.H.^ >.H.H.H.H.H.H.H.H.H.H.H.H.H.H.H.H.b.w ",
"e b.H.H.#.c c a ~ H.H.H.H.H.H.H.H.H.S.H.H.H.H.H.H.f.L a c L L $.H.H.H.H.H.H.H.H.H.H.H.H.H.H.b.w ",
"e b.H.y.' L ^ L ^ 9.H.H.H.H.H.H.H.H.H.H.H.H.H.H.H.y.^ L T ^ ' $.H.H.H.H.H.H.H.A.H.H.H.H.H.H.b.w ",
"w b.H.' c L t c c ^ m.H.H.H.H.H.H.H.H.H.H.H.H.H.H.2.T ^ c c L ^ H.H.H.H.H.H.H.H.H.H.H.H.H.H.b.w ",
"w b.H.b.c a c L L 2.H.H.H.H.H.H.H.H.H.H.H.H.H.H.H.7.h ^ t c L $.H.H.H.H.H.H.H.H.H.H.A.H.H.H.b.w ",
"w b.H.S.f.' B ^ y.m.H.H.H.H.H.H.H.H.H.H.H.H.H.H.H.b.^ C c L ^ 2.H.H.H.H.H.H.A.H.H.H.H.H.H.H.b.w ",
"w b.H.H.H.' c ^ m.H.H.H.H.H.H.H.H.H.H.H.H.H.H.H.H.y.L c c L ^ $.H.H.H.H.H.H.H.H.H.H.H.H.H.H.b.w ",
"e b.H.K.L.^ y G H.K.H.H.H.H.H.H.H.S.H.H.H.H.H.H.H.b.L g f t c $.H.H.K.K.H.H.H.H.H.H.H.A.H.H.b.w ",
"e b.;.' ' G L L ] ~ o.H.H.H.H.H.H.H.H.H.H.$.L ^ L T U C C C ^ L ^ ~ ^ G b.H.H.H.H.H.H.H.H.H.b.w ",
"e b.#.L L L L L L c G A.H.H.H.H.H.H.H.H.K.' c L L Z ^ B L L ^ B L L L L b.H.H.H.H.H.H.H.H.H.b.w ",
"e b.;.c a L h a a a ^ H.H.H.H.H.H.H.H.H.H.` t a a a c a a c L y f c a g b.H.H.H.H.H.H.H.H.H.b.w ",
"e l.[ c L Z L L b b G b.H.H.H.H.H.H.H.H.H.#.c L c c L c c L ^ h a c C b h.H.H.H.H.H.H.H.H.H.b.w ",
"e f.` h L L ^ L L L L h.H.H.H.H.H.H.H.H.H.+.c L L L ^ L L L [ Z L ^ G G b.H.H.H.S.H.H.H.H.H.b.w ",
"t f.Z a h B L h a a a y.H.H.H.H.H.H.H.H.H.' a c a c ^ c c c c a c c c c b.H.H.H.H.H.H.H.H.H.b.t ",
"0 2.7.8.8.8.8.8.y.9.2.y.y.y.y.y.y.y.y.y.y.9.8.y.y.9.y.y.2.y.y.2.y.9.q.y.y.y.y.y.y.8.y.y.y.y.2.0 ",
"3 8 9 9 9 9 9 9 9 9 9 9 9 9 9 8 9 9 8 9 9 9 9 9 9 9 9 9 9 9 9 9 9 9 9 9 9 9 9 9 9 9 8 9 8 9 8 3 "
};
